<svg viewBox="519.3072 455.4845 491.3855 108.031" width="5000" height="1099.2489603376575" xmlns="http://www.w3.org/2000/svg" xmlns:xlink="http://www.w3.org/1999/xlink" preserveAspectRatio="none"><defs></defs><style>.aD6z1nYkhcolor {fill:#8A8A8A;fill-opacity:1;}.aI-iE4slOzwcolors-0 {fill:#3B3B3B;fill-opacity:1;}.aI-iE4slOzwcolors-1 {fill:#989898;fill-opacity:1;}.aI-iE4slOzwcolors-2 {fill:#707070;fill-opacity:1;}.aI-iE4slOzwcolors-3 {fill:#1E1E1E;fill-opacity:1;}.aI-iE4slOzwcolors-4 {fill:#BEBEBE;fill-opacity:1;}.aI-iE4slOzwcolors-5 {fill:#8A8A8A;fill-opacity:1;}.aI-iE4slOzwcolors-6 {fill:#C0C0C0;fill-opacity:1;}.aI-iE4slOzwcolors-7 {fill:#ABABAB;fill-opacity:1;}.aiuSojLjIv-colors-0 {fill:#8A8A8A;fill-opacity:1;}.avdNVoXggv0filter-floo {flood-color:#000000;flood-opacity:1;}</style><g opacity="1" transform="rotate(0 639.7306 460.844)">
<svg width="370.9621" height="97.312" x="639.7306" y="460.844" version="1.1" preserveAspectRatio="none" viewBox="1.12 -28.84 141.2 37.040000000000006">
  <g transform="matrix(1 0 0 1 0 0)" class="aD6z1nYkhcolor"><path d="M10.40-25.60Q7.80-25.60 7.80-22.08L7.80-22.08L7.80-19.56L11.76-19.56L11.76-16.32L7.80-16.32L7.80 0L3.76 0L3.76-16.32L1.12-16.32L1.12-19.36L3.76-19.56L3.76-22.04Q3.76-25.20 5.28-27.02Q6.80-28.84 9.92-28.84L9.92-28.84Q11.68-28.84 13.36-28.16L13.36-28.16L12.56-25.12Q11.48-25.60 10.40-25.60L10.40-25.60ZM15.32 0L15.32-19.56L19.36-19.56L19.36 0L15.32 0ZM17.36-23.24Q16.28-23.24 15.58-23.92Q14.88-24.60 14.88-25.68L14.88-25.68Q14.88-26.72 15.58-27.40Q16.28-28.08 17.36-28.08L17.36-28.08Q18.44-28.08 19.14-27.40Q19.84-26.72 19.84-25.68L19.84-25.68Q19.84-24.60 19.14-23.92Q18.44-23.24 17.36-23.24L17.36-23.24Z M25.52 0L25.52-19.56L28.84-19.56L29.16-16.84L29.28-16.84Q30.84-18.36 32.38-19.20Q33.92-20.04 35.76-20.04L35.76-20.04Q41.76-20.04 41.76-12.32L41.76-12.32L41.76 0L37.72 0L37.72-11.80Q37.72-14.32 36.94-15.44Q36.16-16.56 34.40-16.56L34.40-16.56Q33.08-16.56 32.04-15.94Q31-15.32 29.56-13.88L29.56-13.88L29.56 0L25.52 0Z M54.24 0.48Q48.32 0.48 48.32-6.36L48.32-6.36L48.32-16.32L45.48-16.32L45.48-19.36L48.52-19.56L49-24.96L52.36-24.96L52.36-19.56L57.48-19.56L57.48-16.32L52.36-16.32L52.36-6.36Q52.36-4.56 53.04-3.66Q53.72-2.76 55.24-2.76L55.24-2.76Q56.16-2.76 57.36-3.24L57.36-3.24L58.08-0.24Q55.92 0.48 54.24 0.48L54.24 0.48Z M76.64-10.80Q76.64-9.68 76.48-8.72L76.48-8.72L63.56-8.72Q63.84-5.76 65.58-4.22Q67.32-2.68 69.80-2.68L69.80-2.68Q72.16-2.68 74.48-4.16L74.48-4.16L75.88-1.60Q72.76 0.48 69.28 0.48L69.28 0.48Q66.60 0.48 64.44-0.76Q62.28-2 61.02-4.32Q59.76-6.64 59.76-9.76L59.76-9.76Q59.76-12.84 61.02-15.18Q62.28-17.52 64.32-18.78Q66.36-20.04 68.68-20.04L68.68-20.04Q72.48-20.04 74.56-17.54Q76.64-15.04 76.64-10.80L76.64-10.80ZM63.64-11.52L73.12-11.52Q73.12-14.08 72-15.48Q70.88-16.88 68.76-16.88L68.76-16.88Q66.92-16.88 65.48-15.52Q64.04-14.16 63.64-11.52L63.64-11.52Z M85.24 0.48Q83.12 0.48 82.16-0.80Q81.20-2.08 81.20-4.56L81.20-4.56L81.20-28.36L85.24-28.36L85.24-4.32Q85.24-3.56 85.52-3.20Q85.80-2.84 86.20-2.84L86.20-2.84Q86.56-2.84 86.92-2.92L86.92-2.92L87.44 0.12Q86.52 0.48 85.24 0.48L85.24 0.48Z M95.80 0.48Q93.68 0.48 92.72-0.80Q91.76-2.08 91.76-4.56L91.76-4.56L91.76-28.36L95.80-28.36L95.80-4.32Q95.80-3.56 96.08-3.20Q96.36-2.84 96.76-2.84L96.76-2.84Q97.12-2.84 97.48-2.92L97.48-2.92L98 0.12Q97.08 0.48 95.80 0.48L95.80 0.48Z M102.32 0L102.32-19.56L106.36-19.56L106.36 0L102.32 0ZM104.36-23.24Q103.28-23.24 102.58-23.92Q101.88-24.60 101.88-25.68L101.88-25.68Q101.88-26.72 102.58-27.40Q103.28-28.08 104.36-28.08L104.36-28.08Q105.44-28.08 106.14-27.40Q106.84-26.72 106.84-25.68L106.84-25.68Q106.84-24.60 106.14-23.92Q105.44-23.24 104.36-23.24L104.36-23.24Z M119.08 0.48Q113.16 0.48 113.16-6.36L113.16-6.36L113.16-16.32L110.32-16.32L110.32-19.36L113.36-19.56L113.84-24.96L117.20-24.96L117.20-19.56L122.32-19.56L122.32-16.32L117.20-16.32L117.20-6.36Q117.20-4.56 117.88-3.66Q118.56-2.76 120.08-2.76L120.08-2.76Q121.00-2.76 122.20-3.24L122.20-3.24L122.92-0.24Q120.76 0.48 119.08 0.48L119.08 0.48Z M127.44 8.20Q126.12 8.20 125.00 7.80L125.00 7.80L125.76 4.64Q126.68 4.92 127.20 4.92L127.20 4.92Q130.08 4.92 131.32 1.20L131.32 1.20L131.72-0.12L123.96-19.56L128.08-19.56L131.72-9.44L132.92-5.80L133.52-3.92L133.68-3.92Q134.12-5.36 134.36-6.40L134.36-6.40L135.24-9.44L138.40-19.56L142.32-19.56L135.12 1.20Q133.88 4.64 132.12 6.42Q130.36 8.20 127.44 8.20L127.44 8.20Z"/></g>
</svg>
</g><g opacity="1" transform="rotate(43.6 561.2457 455.4845)">
<svg width="60.8146" height="60.8139" x="561.2457" y="455.4845" version="1.1" preserveAspectRatio="none" viewBox="4.561999797821045 4.561999797821045 90.8759994506836 90.875">
  <g transform="matrix(1 0 0 1 0 0)" class="aiuSojLjIv-colors-0"><g><path d="M4.562,4.562v90.875h90.876V4.562H4.562z M86.35,86.35H13.649v-72.7H86.35V86.35z"></path></g></g>
</svg>
</g><g opacity="1" transform="rotate(43.6 561.0197 478.0007)">
<svg width="60.4861" height="60.4862" x="561.0197" y="478.0007" version="1.1" preserveAspectRatio="none" viewBox="17 -18 100 100">
  <g transform="matrix(1 0 0 1 0 0)" class="aI-iE4slOzwcolors-0"><path d="M112.8-18h-4.2c-4.2,0-4.2,0-4.2,4.2v4.2c0,4.2,0,4.2,4.2,4.2h4.2c4.2,0,4.2,0,4.2-4.2v-4.2C117-18,117-18,112.8-18z M91-18  h-4.2c-4.2,0-4.2,0-4.2,4.2v4.2c0,4.2,0,4.2,4.2,4.2H91c4.2,0,4.2,0,4.2-4.2v-4.2C95.2-18,95.2-18,91-18z M112.8,3.8h-4.2  c-4.2,0-4.2,0-4.2,4.2v4.2c0,4.2,0,4.2,4.2,4.2h4.2c4.2,0,4.2,0,4.2-4.2V8C117,3.8,117,3.8,112.8,3.8z M69.1-18h-4.2  c-4.2,0-4.2,0-4.2,4.2v4.2c0,4.2,0,4.2,4.2,4.2h4.2c4.2,0,4.2,0,4.2-4.2v-4.2C73.2-18,73.2-18,69.1-18z M112.8,25.8h-4.2  c-4.2,0-4.2,0-4.2,4.2v4.2c0,4.2,0,4.2,4.2,4.2h4.2c4.2,0,4.2,0,4.2-4.2v-4.2C117,25.8,117,25.8,112.8,25.8z M47.2-18h-4.2  c-4.2,0-4.2,0-4.2,4.2v4.2c0,4.2,0,4.2,4.2,4.2h4.2c4.2,0,4.2,0,4.2-4.2v-4.2C51.4-18,51.4-18,47.2-18z M25.3-18h-4.2  C17-18,17-18,17-13.8v4.2c0,4.2,0,4.2,4.2,4.2h4.2c4.2,0,4.2,0,4.2-4.2v-4.2C29.5-18,29.5-18,25.3-18z M112.8,69.5h-4.2  c-4.2,0-4.2,0-4.2,4.2v4.2c0,4.2,0,4.2,4.2,4.2h4.2c4.2,0,4.2,0,4.2-4.2v-4.2C117,69.5,117,69.5,112.8,69.5z M91,69.5h-4.2  c-4.2,0-4.2,0-4.2,4.2v4.2c0,4.2,0,4.2,4.2,4.2H91c4.2,0,4.2,0,4.2-4.2v-4.2C95.2,69.5,95.2,69.5,91,69.5z M25.3,3.8h-4.2  C17,3.8,17,3.8,17,8v4.2c0,4.2,0,4.2,4.2,4.2h4.2c4.2,0,4.2,0,4.2-4.2V8C29.5,3.8,29.5,3.8,25.3,3.8z M69.1,69.5h-4.2  c-4.2,0-4.2,0-4.2,4.2v4.2c0,4.2,0,4.2,4.2,4.2h4.2c4.2,0,4.2,0,4.2-4.2v-4.2C73.2,69.5,73.2,69.5,69.1,69.5z M25.3,25.8h-4.2  c-4.2,0-4.2,0-4.2,4.2v4.2c0,4.2,0,4.2,4.2,4.2h4.2c4.2,0,4.2,0,4.2-4.2v-4.2C29.5,25.8,29.5,25.8,25.3,25.8z M47.2,69.5h-4.2  c-4.2,0-4.2,0-4.2,4.2v4.2c0,4.2,0,4.2,4.2,4.2h4.2c4.2,0,4.2,0,4.2-4.2v-4.2C51.4,69.5,51.4,69.5,47.2,69.5z M25.3,47.6h-4.2  c-4.2,0-4.2,0-4.2,4.2V56c0,4.2,0,4.2,4.2,4.2h4.2c4.2,0,4.2,0,4.2-4.2v-4.2C29.5,47.6,29.5,47.6,25.3,47.6z M25.3,69.5h-4.2  c-4.2,0-4.2,0-4.2,4.2v4.2c0,4.2,0,4.2,4.2,4.2h4.2c4.2,0,4.2,0,4.2-4.2v-4.2C29.5,69.5,29.5,69.5,25.3,69.5z M112.8,47.6h-4.2  c-4.2,0-4.2,0-4.2,4.2V56c0,4.2,0,4.2,4.2,4.2h4.2c4.2,0,4.2,0,4.2-4.2v-4.2C117,47.6,117,47.6,112.8,47.6z"></path></g>
</svg>
</g></svg>