<svg viewBox="0 0 294.081 57.5049" width="5000px" height="977.7051103695284px" xmlns="http://www.w3.org/2000/svg" xmlns:xlink="http://www.w3.org/1999/xlink" preserveAspectRatio="none"><defs></defs><style>.aD6z1nYkhcolorNEopokcvj {fill:#EBC42A;fill-opacity:1;}.aIptOCySncolors-0NEopokcvj {fill:#F1F1F1;fill-opacity:1;}.aIptOCySncolors-1NEopokcvj {fill:#EBC42A;fill-opacity:1;}.aJ5-4qh35ycolors-0NEopokcvj {fill:#06F1F7;fill-opacity:1;}.atBXipXk0bfillColorNEopokcvj {fill:#EBC42A;fill-opacity:1;}.shapeStroke-strNEopokcvj {stroke:#F1F1F1;stroke-opacity:1;}</style><g opacity="1" transform="rotate(-90 0 57.50489999999999)">
        <svg width="57.5049" height="51.395" x="0" y="57.50489999999999" version="1.1" preserveAspectRatio="none" viewBox="19.999998092651367 28.5 160 143">
          <g transform="matrix(1 0 0 1 0 0)"><g><path d="M159.9 37.8c0 5.1-4.1 9.3-9.2 9.3s-9.3-4.1-9.3-9.3c0-5.1 4.1-9.3 9.3-9.3 5 0 9.1 4.1 9.2 9.3z" data-color="1" class="aIptOCySncolors-0NEopokcvj"></path><path d="M172.8 56c0 4.8-3.9 8.8-8.7 8.8-4.8 0-8.8-3.9-8.8-8.8 0-4.8 3.9-8.8 8.8-8.8 4.7 0 8.7 4 8.7 8.8z" data-color="1" class="aIptOCySncolors-0NEopokcvj"></path><path d="M179.5 76.6c0 4.6-3.7 8.3-8.2 8.3-4.6 0-8.2-3.7-8.3-8.3 0-4.6 3.7-8.3 8.3-8.3 4.5.1 8.2 3.8 8.2 8.3z" data-color="1" class="aIptOCySncolors-0NEopokcvj"></path><path d="M180 98.2c0 4.3-3.5 7.8-7.7 7.8-4.3 0-7.7-3.5-7.7-7.7 0-4.3 3.5-7.8 7.7-7.7 4.2-.1 7.7 3.3 7.7 7.6z" data-color="1" class="aIptOCySncolors-0NEopokcvj"></path><path d="M174.3 119.3c0 4-3.2 7.3-7.2 7.3s-7.2-3.2-7.2-7.2 3.2-7.2 7.2-7.2c4-.1 7.2 3.1 7.2 7.1z" data-color="1" class="aIptOCySncolors-0NEopokcvj"></path><path d="M162.5 138.5c0 3.7-3 6.7-6.7 6.8s-6.7-3-6.7-6.7 3-6.7 6.7-6.7c3.7-.1 6.7 2.9 6.7 6.6z" data-color="1" class="aIptOCySncolors-0NEopokcvj"></path><path d="M145 153.9c0 3.4-2.8 6.2-6.2 6.2-3.4 0-6.2-2.8-6.2-6.2 0-3.4 2.8-6.2 6.2-6.2 3.5-.1 6.2 2.7 6.2 6.2z" data-color="1" class="aIptOCySncolors-0NEopokcvj"></path><path d="M124.6 163.2c0 3.2-2.6 5.7-5.7 5.7-3.2 0-5.7-2.6-5.7-5.7 0-3.2 2.6-5.7 5.7-5.7 3.1-.1 5.7 2.5 5.7 5.7z" data-color="1" class="aIptOCySncolors-0NEopokcvj"></path><path d="M102.7 166.3c0 2.9-2.3 5.2-5.2 5.2-2.9 0-5.2-2.3-5.2-5.2 0-2.9 2.3-5.2 5.2-5.2 2.9-.1 5.2 2.3 5.2 5.2z" data-color="1" class="aIptOCySncolors-0NEopokcvj"></path><path d="M80.8 163.2c0 2.6-2.1 4.7-4.7 4.7s-4.7-2.1-4.7-4.7 2.1-4.7 4.7-4.7c2.6-.1 4.7 2.1 4.7 4.7z" data-color="1" class="aIptOCySncolors-0NEopokcvj"></path><path d="M60.4 153.9c0 2.3-1.9 4.2-4.2 4.2-2.3 0-4.2-1.9-4.2-4.2 0-2.3 1.9-4.2 4.2-4.2 2.3-.1 4.2 1.8 4.2 4.2z" data-color="1" class="aIptOCySncolors-0NEopokcvj"></path><path d="M42.9 138.5c0 2.1-1.7 3.7-3.7 3.7s-3.7-1.7-3.7-3.7c0-2.1 1.7-3.7 3.7-3.7 2.1 0 3.7 1.7 3.7 3.7z" data-color="1" class="aIptOCySncolors-0NEopokcvj"></path><path d="M31.1 119.3c0 1.8-1.4 3.2-3.2 3.2-1.8 0-3.2-1.4-3.2-3.2 0-1.8 1.4-3.2 3.2-3.2 1.7 0 3.2 1.4 3.2 3.2z" data-color="1" class="aIptOCySncolors-0NEopokcvj"></path><path d="M25.4 98.2c0 1.5-1.2 2.7-2.7 2.7-1.5 0-2.7-1.2-2.7-2.7 0-1.5 1.2-2.7 2.7-2.7 1.5 0 2.7 1.2 2.7 2.7z" data-color="1" class="aIptOCySncolors-0NEopokcvj"></path><path d="M25.9 76.6c0 1.2-1 2.2-2.2 2.2-1.2 0-2.2-1-2.2-2.2 0-1.2 1-2.2 2.2-2.2 1.2 0 2.2 1 2.2 2.2z" data-color="1" class="aIptOCySncolors-0NEopokcvj"></path><path d="M32.6 56c0 .9-.8 1.7-1.7 1.7-.9 0-1.7-.8-1.7-1.7 0-.9.8-1.7 1.7-1.7 1 0 1.7.8 1.7 1.7z" data-color="1" class="aIptOCySncolors-0NEopokcvj"></path><path d="M45.6 37.8c0 .7-.5 1.2-1.2 1.2s-1.2-.5-1.2-1.2.5-1.2 1.2-1.2c.6 0 1.2.5 1.2 1.2z" data-color="1" class="aIptOCySncolors-0NEopokcvj"></path><path d="M70.3 124c0 3.1-2.5 5.7-5.7 5.7-3.1 0-5.7-2.5-5.7-5.7 0-3.1 2.5-5.7 5.7-5.7s5.7 2.5 5.7 5.7z" data-color="2" class="aIptOCySncolors-1NEopokcvj"></path><path d="M61.8 112.8c0 3-2.4 5.4-5.4 5.4-3 0-5.4-2.4-5.4-5.4 0-3 2.4-5.4 5.4-5.4 3 0 5.4 2.5 5.4 5.4z" data-color="2" class="aIptOCySncolors-1NEopokcvj"></path><path d="M57.1 100.2c0 2.8-2.3 5.1-5.1 5.1s-5.1-2.3-5.1-5.1 2.3-5.1 5.1-5.1 5.1 2.3 5.1 5.1z" data-color="2" class="aIptOCySncolors-1NEopokcvj"></path><path d="M56.1 87c0 2.6-2.1 4.8-4.7 4.8s-4.7-2.1-4.7-4.8 2.1-4.8 4.7-4.8 4.7 2.1 4.7 4.8z" data-color="2" class="aIptOCySncolors-1NEopokcvj"></path><path d="M59 74c0 2.5-2 4.4-4.4 4.4-2.4 0-4.4-2-4.4-4.4s2-4.4 4.4-4.4c2.4 0 4.4 2 4.4 4.4z" data-color="2" class="aIptOCySncolors-1NEopokcvj"></path><path d="M65.6 62.3c0 2.3-1.8 4.1-4.1 4.1s-4.1-1.8-4.1-4.1 1.9-4.1 4.1-4.1c2.3-.1 4.1 1.8 4.1 4.1z" data-color="2" class="aIptOCySncolors-1NEopokcvj"></path><path d="M75.7 52.9c0 2.1-1.7 3.8-3.8 3.8-2.1 0-3.8-1.7-3.8-3.8 0-2.1 1.7-3.8 3.8-3.8 2.1-.1 3.8 1.6 3.8 3.8z" data-color="2" class="aIptOCySncolors-1NEopokcvj"></path><path d="M87.6 47.2c0 1.9-1.6 3.5-3.5 3.5s-3.5-1.6-3.5-3.5 1.6-3.5 3.5-3.5c1.9-.1 3.5 1.5 3.5 3.5z" data-color="2" class="aIptOCySncolors-1NEopokcvj"></path><path d="M100.4 45.3c0 1.8-1.4 3.2-3.2 3.2S94 47 94 45.3c0-1.8 1.4-3.2 3.2-3.2s3.2 1.4 3.2 3.2z" data-color="2" class="aIptOCySncolors-1NEopokcvj"></path><path d="M113.2 47.2c0 1.6-1.3 2.9-2.9 2.9s-2.9-1.3-2.9-2.9c0-1.6 1.3-2.9 2.9-2.9s2.9 1.3 2.9 2.9z" data-color="2" class="aIptOCySncolors-1NEopokcvj"></path><path d="M125.1 52.9c0 1.4-1.2 2.6-2.6 2.6-1.4 0-2.6-1.2-2.6-2.6s1.2-2.6 2.6-2.6c1.4 0 2.6 1.1 2.6 2.6z" data-color="2" class="aIptOCySncolors-1NEopokcvj"></path><path d="M135.2 62.3c0 1.3-1 2.3-2.3 2.3-1.3 0-2.3-1-2.3-2.3 0-1.3 1-2.3 2.3-2.3 1.2 0 2.3 1 2.3 2.3z" data-color="2" class="aIptOCySncolors-1NEopokcvj"></path><path d="M141.8 74c0 1.1-.9 2-2 2s-2-.9-2-2 .9-2 2-2c1.1.1 2 .9 2 2z" data-color="2" class="aIptOCySncolors-1NEopokcvj"></path><path d="M144.7 87c0 .9-.7 1.7-1.7 1.7-.9 0-1.7-.7-1.7-1.7 0-.9.7-1.7 1.7-1.7.9 0 1.6.7 1.7 1.7z" data-color="2" class="aIptOCySncolors-1NEopokcvj"></path><path d="M143.7 100.2c0 .7-.6 1.4-1.3 1.4-.7 0-1.3-.6-1.3-1.4 0-.7.6-1.4 1.3-1.4.7 0 1.3.6 1.3 1.4z" data-color="2" class="aIptOCySncolors-1NEopokcvj"></path><path d="M139 112.8c0 .6-.5 1-1 1-.6 0-1-.5-1-1 0-.6.5-1 1-1s1 .4 1 1z" data-color="2" class="aIptOCySncolors-1NEopokcvj"></path><path d="M130.5 124c0 .4-.3.7-.7.7-.4 0-.7-.3-.7-.7s.3-.7.7-.7c.3-.1.7.3.7.7z" data-color="2" class="aIptOCySncolors-1NEopokcvj"></path></g></g>
        </svg>
      </g><g opacity="1" transform="rotate(0 82.17909999999999 17.297200000000004)">
        <svg width="211.9019" height="22.9104" x="82.17909999999999" y="17.297200000000004" version="1.1" preserveAspectRatio="none" viewBox="1.56 -29.68 349.24 37.760000000000005">
          <g transform="matrix(1 0 0 1 0 0)" class="aD6z1nYkhcolorNEopokcvj"><path transform="" stroke="none" d="M22.24-6.24L22.24-14.44L28.16-14.44L28.16-3.08Q25.88-1.36 22.88-0.44Q19.88 0.48 16.84 0.48L16.84 0.48Q12.48 0.48 9-1.38Q5.52-3.24 3.54-6.54Q1.56-9.84 1.56-14L1.56-14Q1.56-18.16 3.54-21.46Q5.52-24.76 9.04-26.62Q12.56-28.48 16.96-28.48L16.96-28.48Q20.64-28.48 23.64-27.24Q26.64-26 28.68-23.64L28.68-23.64L24.52-19.80Q21.52-22.96 17.28-22.96L17.28-22.96Q14.60-22.96 12.52-21.84Q10.44-20.72 9.28-18.68Q8.12-16.64 8.12-14L8.12-14Q8.12-11.40 9.28-9.36Q10.44-7.32 12.50-6.18Q14.56-5.04 17.20-5.04L17.20-5.04Q20-5.04 22.24-6.24L22.24-6.24Z"></path>
    <path transform="" stroke="none" d="M46.80-21.84Q50.80-21.84 53.26-19.44Q55.72-17.04 55.72-12.32L55.72-12.32L55.72 0L49.48 0L49.48-11.36Q49.48-13.92 48.36-15.18Q47.24-16.44 45.12-16.44L45.12-16.44Q42.76-16.44 41.36-14.98Q39.96-13.52 39.96-10.64L39.96-10.64L39.96 0L33.72 0L33.72-29.68L39.96-29.68L39.96-19.28Q41.20-20.52 42.96-21.18Q44.72-21.84 46.80-21.84L46.80-21.84Z"></path>
    <path transform="" stroke="none" d="M71.84 0.32Q68.44 0.32 65.74-1.10Q63.04-2.52 61.52-5.04Q60.00-7.56 60.00-10.76L60.00-10.76Q60.00-13.96 61.52-16.48Q63.04-19 65.74-20.42Q68.44-21.84 71.84-21.84L71.84-21.84Q75.24-21.84 77.92-20.42Q80.60-19 82.12-16.48Q83.64-13.96 83.64-10.76L83.64-10.76Q83.64-7.56 82.12-5.04Q80.60-2.52 77.92-1.10Q75.24 0.32 71.84 0.32L71.84 0.32ZM71.84-4.80Q74.24-4.80 75.78-6.42Q77.32-8.04 77.32-10.76L77.32-10.76Q77.32-13.48 75.78-15.10Q74.24-16.72 71.84-16.72L71.84-16.72Q69.44-16.72 67.88-15.10Q66.32-13.48 66.32-10.76L66.32-10.76Q66.32-8.04 67.88-6.42Q69.44-4.80 71.84-4.80L71.84-4.80Z"></path>
    <path transform="" stroke="none" d="M95.04 0.32Q92.36 0.32 89.80-0.34Q87.24-1 85.72-2L85.72-2L87.80-6.48Q89.24-5.56 91.28-4.98Q93.32-4.40 95.28-4.40L95.28-4.40Q99.24-4.40 99.24-6.36L99.24-6.36Q99.24-7.28 98.16-7.68Q97.08-8.08 94.84-8.36L94.84-8.36Q92.20-8.76 90.48-9.28Q88.76-9.80 87.50-11.12Q86.24-12.44 86.24-14.88L86.24-14.88Q86.24-16.92 87.42-18.50Q88.60-20.08 90.86-20.96Q93.12-21.84 96.20-21.84L96.20-21.84Q98.48-21.84 100.74-21.34Q103-20.84 104.48-19.96L104.48-19.96L102.40-15.52Q99.56-17.12 96.20-17.12L96.20-17.12Q94.20-17.12 93.20-16.56Q92.20-16 92.20-15.12L92.20-15.12Q92.20-14.12 93.28-13.72Q94.36-13.32 96.72-12.96L96.72-12.96Q99.36-12.52 101.04-12.02Q102.72-11.52 103.96-10.20Q105.20-8.88 105.20-6.52L105.20-6.52Q105.20-4.52 104-2.96Q102.80-1.40 100.50-0.54Q98.20 0.32 95.04 0.32L95.04 0.32Z"></path>
    <path transform="" stroke="none" d="M121.24-5.44L122.92-1.04Q122-0.36 120.66-0.02Q119.32 0.32 117.84 0.32L117.84 0.32Q114 0.32 111.90-1.64Q109.80-3.60 109.80-7.40L109.80-7.40L109.80-16.24L106.48-16.24L106.48-21.04L109.80-21.04L109.80-26.28L116.04-26.28L116.04-21.04L121.40-21.04L121.40-16.24L116.04-16.24L116.04-7.48Q116.04-6.12 116.74-5.38Q117.44-4.64 118.72-4.64L118.72-4.64Q120.20-4.64 121.24-5.44L121.24-5.44Z"></path>
    <path transform="" stroke="none" d=""></path>
    <path transform="" stroke="none" d="M150.32-28Q154.04-28 156.78-26.76Q159.52-25.52 161-23.24Q162.48-20.96 162.48-17.84L162.48-17.84Q162.48-14.76 161-12.46Q159.52-10.16 156.78-8.94Q154.04-7.72 150.32-7.72L150.32-7.72L144.68-7.72L144.68 0L138.20 0L138.20-28L150.32-28ZM149.96-13Q152.88-13 154.40-14.26Q155.92-15.52 155.92-17.84L155.92-17.84Q155.92-20.20 154.40-21.46Q152.88-22.72 149.96-22.72L149.96-22.72L144.68-22.72L144.68-13L149.96-13Z"></path>
    <path transform="" stroke="none" d="M175.12-21.84Q180.12-21.84 182.80-19.46Q185.48-17.08 185.48-12.28L185.48-12.28L185.48 0L179.64 0L179.64-2.68Q177.88 0.32 173.08 0.32L173.08 0.32Q170.60 0.32 168.78-0.52Q166.96-1.36 166-2.84Q165.04-4.32 165.04-6.20L165.04-6.20Q165.04-9.20 167.30-10.92Q169.56-12.64 174.28-12.64L174.28-12.64L179.24-12.64Q179.24-14.68 178-15.78Q176.76-16.88 174.28-16.88L174.28-16.88Q172.56-16.88 170.90-16.34Q169.24-15.80 168.08-14.88L168.08-14.88L165.84-19.24Q167.60-20.48 170.06-21.16Q172.52-21.84 175.12-21.84L175.12-21.84ZM174.64-3.88Q176.24-3.88 177.48-4.62Q178.72-5.36 179.24-6.80L179.24-6.80L179.24-9L174.96-9Q171.12-9 171.12-6.48L171.12-6.48Q171.12-5.28 172.06-4.58Q173-3.88 174.64-3.88L174.64-3.88Z"></path>
    <path transform="" stroke="none" d="M206.08-21.52L212.08-21.52L202.36 1.32Q200.88 5.04 198.70 6.56Q196.52 8.08 193.44 8.08L193.44 8.08Q191.76 8.08 190.12 7.56Q188.48 7.04 187.44 6.12L187.44 6.12L189.72 1.68Q190.44 2.32 191.38 2.68Q192.32 3.04 193.24 3.04L193.24 3.04Q194.52 3.04 195.32 2.42Q196.12 1.80 196.76 0.36L196.76 0.36L196.84 0.16L187.52-21.52L193.96-21.52L200-6.92L206.08-21.52Z"></path>
    <path transform="" stroke="none" d=""></path>
    <path transform="" stroke="none" d="M245.32-6.24L245.32-14.44L251.24-14.44L251.24-3.08Q248.96-1.36 245.96-0.44Q242.96 0.48 239.92 0.48L239.92 0.48Q235.56 0.48 232.08-1.38Q228.60-3.24 226.62-6.54Q224.64-9.84 224.64-14L224.64-14Q224.64-18.16 226.62-21.46Q228.60-24.76 232.12-26.62Q235.64-28.48 240.04-28.48L240.04-28.48Q243.72-28.48 246.72-27.24Q249.72-26 251.76-23.64L251.76-23.64L247.60-19.80Q244.60-22.96 240.36-22.96L240.36-22.96Q237.68-22.96 235.60-21.84Q233.52-20.72 232.36-18.68Q231.20-16.64 231.20-14L231.20-14Q231.20-11.40 232.36-9.36Q233.52-7.32 235.58-6.18Q237.64-5.04 240.28-5.04L240.28-5.04Q243.08-5.04 245.32-6.24L245.32-6.24Z"></path>
    <path transform="" stroke="none" d="M262.76-18.68Q263.88-20.24 265.78-21.04Q267.68-21.84 270.16-21.84L270.16-21.84L270.16-16.08Q269.12-16.16 268.76-16.16L268.76-16.16Q266.08-16.16 264.56-14.66Q263.04-13.16 263.04-10.16L263.04-10.16L263.04 0L256.80 0L256.80-21.52L262.76-21.52L262.76-18.68Z"></path>
    <path transform="" stroke="none" d="M283.92 0.32Q280.52 0.32 277.82-1.10Q275.12-2.52 273.60-5.04Q272.08-7.56 272.08-10.76L272.08-10.76Q272.08-13.96 273.60-16.48Q275.12-19 277.82-20.42Q280.52-21.84 283.92-21.84L283.92-21.84Q287.32-21.84 290.00-20.42Q292.68-19 294.20-16.48Q295.72-13.96 295.72-10.76L295.72-10.76Q295.72-7.56 294.20-5.04Q292.68-2.52 290.00-1.10Q287.32 0.32 283.92 0.32L283.92 0.32ZM283.92-4.80Q286.32-4.80 287.86-6.42Q289.40-8.04 289.40-10.76L289.40-10.76Q289.40-13.48 287.86-15.10Q286.32-16.72 283.92-16.72L283.92-16.72Q281.52-16.72 279.96-15.10Q278.40-13.48 278.40-10.76L278.40-10.76Q278.40-8.04 279.96-6.42Q281.52-4.80 283.92-4.80L283.92-4.80Z"></path>
    <path transform="" stroke="none" d="M315.32-21.52L321.56-21.52L321.56 0L315.64 0L315.64-2.56Q314.40-1.16 312.68-0.42Q310.96 0.32 308.96 0.32L308.96 0.32Q304.72 0.32 302.24-2.12Q299.76-4.56 299.76-9.36L299.76-9.36L299.76-21.52L306.00-21.52L306.00-10.28Q306.00-5.08 310.36-5.08L310.36-5.08Q312.60-5.08 313.96-6.54Q315.32-8 315.32-10.88L315.32-10.88L315.32-21.52Z"></path>
    <path transform="" stroke="none" d="M340.08-21.84Q343.08-21.84 345.54-20.46Q348.00-19.08 349.40-16.58Q350.80-14.08 350.80-10.76L350.80-10.76Q350.80-7.44 349.40-4.94Q348.00-2.44 345.54-1.06Q343.08 0.32 340.08 0.32L340.08 0.32Q335.96 0.32 333.60-2.28L333.60-2.28L333.60 7.76L327.36 7.76L327.36-21.52L333.32-21.52L333.32-19.04Q335.64-21.84 340.08-21.84L340.08-21.84ZM339.00-4.80Q341.40-4.80 342.94-6.42Q344.48-8.04 344.48-10.76L344.48-10.76Q344.48-13.48 342.94-15.10Q341.40-16.72 339.00-16.72L339.00-16.72Q336.60-16.72 335.06-15.10Q333.52-13.48 333.52-10.76L333.52-10.76Q333.52-8.04 335.06-6.42Q336.60-4.80 339.00-4.80L339.00-4.80Z"></path>
    </g>
        </svg>
      </g><g opacity="1" transform="rotate(0 70.0004 0)">
        <svg width="0.7366" height="56" x="70.0004" y="0" version="1.1" preserveAspectRatio="none" viewBox="0 0 0.7366 56">
          <rect x="0" y="0" width="1" height="56" class="atBXipXk0bfillColorNEopokcvj shapeStroke-strNEopokcvj" style="stroke-width:0;" rx="0px" ry="0px"></rect>
        </svg>
      </g><g opacity="1" transform="rotate(4.5 17.9281 22.977499999999992)">
        <svg width="11.3132" height="11.3134" x="17.9281" y="22.977499999999992" version="1.1" preserveAspectRatio="none" viewBox="14.090999603271484 14 71.8179931640625 71.81900024414062">
          <g transform="matrix(1 0 0 1 0 0)" class="aJ5-4qh35ycolors-0NEopokcvj"><g><path d="M50,85.819c-19.8,0-35.909-16.109-35.909-35.91C14.091,30.109,30.2,14,50,14c19.801,0,35.909,16.109,35.909,35.909   C85.909,69.71,69.801,85.819,50,85.819z M50,18c-17.595,0-31.909,14.314-31.909,31.909c0,17.596,14.314,31.91,31.909,31.91   s31.909-14.314,31.909-31.91C81.909,32.314,67.595,18,50,18z"></path></g></g>
        </svg>
      </g></svg>